<svg height="512pt" viewBox="0 -19 512 512" width="512pt" xmlns="http://www.w3.org/2000/svg" xmlns:xlink="http://www.w3.org/1999/xlink"><linearGradient id="a" gradientUnits="userSpaceOnUse" x1="255.999975996" x2="255.999975996" y1="-.0003017988" y2="474.6002997912"><stop offset="0" stop-color="#2af598"/><stop offset="1" stop-color="#009efd"/></linearGradient><path d="m512 180.21875-165.898438-38.269531-90.101562-141.949219-90.101562 141.949219-165.898438 38.269531 115.726562 116.625-16.757812 177.757812 157.03125-75.125 157.03125 75.125-16.757812-177.757812zm-256 174.914062-110.578125 52.902344 11.886719-126.074218-78.308594-78.914063 111.875-25.808594 65.125-102.597656 65.125 102.597656 111.875 25.808594-78.308594 78.914063 11.886719 126.074218zm20-122.8125h40v40h-40v40h-40v-40h-40v-40h40v-40h40zm0 0" fill="url(#a)"/></svg>